# xmcd
#
# Track frame offsets:
#	150
#	25912
#	47414
#	65204
#	90804
#	124809
#	137324
#	150232
#	171076
#	198775
#	214553
#	238023
#	287520
#	307125
#
# Disc length: 4430 seconds
#
# Revision: 1
# Processed by: cddbd v1.5.1PL0 Copyright (c) Steve Scherf et al.
# Submitted via: audiograbber 1.83.01
#
DISCID=b1114c0e
DTITLE=Governor Davis and The Blues Ambassadors - LIVE
DYEAR=2000
DGENRE=Blues
TTITLE0=Boom Boom
TTITLE1=Lovelight
TTITLE2=Blues Thang
TTITLE3=Crosseyed Cat
TTITLE4=Help Me
TTITLE5=Never, Never Ever
TTITLE6=The Girl Can't Help It
TTITLE7=Blues With A Groove
TTITLE8=All Your Love
TTITLE9=Wild About It
TTITLE10=Goodtime Baby
TTITLE11=Lickin' Gravy
TTITLE12=Darlin'
TTITLE13=Moonshine Whiskey
EXTD=Recorded Live At The Pines Evergreen Room, Seymour, IN., The Slippery Nood
EXTD=le Inn, Indiannapolis, In. and The Knickerbocker Saloon, Lafayette, IN. Fe
EXTD=bruary 2000\n\nReleased 2001 JK Publishing Inc.
EXTT0=
EXTT1=
EXTT2=
EXTT3=
EXTT4=
EXTT5=
EXTT6=
EXTT7=
EXTT8=
EXTT9=
EXTT10=
EXTT11=
EXTT12=
EXTT13=
PLAYORDER=
